<svg width="24" height="24" viewBox="0 0 24 24" fill="none" xmlns="http://www.w3.org/2000/svg">
<path fill-rule="evenodd" clip-rule="evenodd" d="M14.4951 16.995C14.2217 17.2684 13.7785 17.2684 13.5051 16.995L13.9385 16.5616C13.5051 16.995 13.5051 16.995 13.5051 16.995L13.4592 16.9489L13.331 16.8199C13.2208 16.7088 13.0636 16.5496 12.875 16.357C12.4981 15.9723 11.9946 15.4531 11.4903 14.9173C10.9877 14.3832 10.4772 13.8252 10.0896 13.365C9.89711 13.1363 9.72487 12.92 9.59732 12.7367C9.53425 12.646 9.47212 12.5492 9.42297 12.454C9.3893 12.3888 9.30008 12.2132 9.30008 12C9.30008 11.7868 9.3893 11.6113 9.42297 11.546C9.47212 11.4508 9.53425 11.354 9.59732 11.2634C9.72487 11.08 9.89711 10.8637 10.0896 10.6351C10.4772 10.1748 10.9877 9.61678 11.4903 9.08276C11.9946 8.54694 12.4981 8.02774 12.875 7.64298C13.0636 7.45046 13.2208 7.29127 13.331 7.18009L13.4592 7.05111L13.5043 7.00589L13.505 7.00511C13.5051 7.00507 13.5051 7.00504 14.0001 7.50001L14.495 7.995L14.4512 8.039L14.3254 8.16563C14.2168 8.27516 14.0615 8.43238 13.8751 8.62267C13.502 9.00354 13.0055 9.51558 12.5098 10.0423C12.0124 10.5707 11.5229 11.1065 11.1605 11.5368C11.0057 11.7207 10.8813 11.8768 10.7914 12C10.8813 12.1232 11.0057 12.2793 11.1605 12.4632C11.5229 12.8935 12.0124 13.4293 12.5098 13.9578C13.0055 14.4844 13.502 14.9965 13.8751 15.3774C14.0615 15.5676 14.2168 15.7249 14.3254 15.8344L14.4512 15.961L14.4944 16.0044C14.7678 16.2778 14.7684 16.7216 14.4951 16.995ZM10.667 11.8119C10.6598 11.7939 10.6573 11.793 10.667 11.8119C10.6672 11.8121 10.6669 11.8116 10.667 11.8119ZM14.4951 7.00504C14.7684 7.27841 14.7684 7.72164 14.495 7.995L14.0001 7.50001L13.505 7.00511C13.7784 6.73175 14.2217 6.73167 14.4951 7.00504Z" fill="white"/>
</svg>
