<svg width="20" height="20" viewBox="0 0 20 20" fill="none" xmlns="http://www.w3.org/2000/svg">
<path fill-rule="evenodd" clip-rule="evenodd" d="M4.30109 2.17964C4.62179 2.02481 4.96545 1.91663 5.25968 1.91663C5.45358 1.91663 5.63805 1.97781 5.78182 2.03949C5.93563 2.10547 6.09506 2.19513 6.25219 2.29735C6.56702 2.50217 6.91018 2.78199 7.2351 3.09993C7.86269 3.71407 8.52865 4.57511 8.70564 5.41937C8.7808 5.77793 8.70281 6.14228 8.50804 6.43683C8.38854 6.61755 8.23568 6.80907 8.09161 6.98733C8.07088 7.01297 8.05023 7.03847 8.02968 7.06385C7.90099 7.22274 7.77597 7.37709 7.65978 7.53369C7.52507 7.71524 7.41731 7.88012 7.3445 8.0281C7.27009 8.17935 7.25002 8.27753 7.25002 8.33329C7.25002 8.59519 7.40974 9.11299 7.7644 9.75814C8.1057 10.379 8.58177 11.0347 9.11219 11.5586C9.67133 12.1109 10.1663 12.5211 10.6054 12.7906C11.015 13.042 11.3431 13.1507 11.6067 13.165C11.6191 13.1547 11.6358 13.1398 11.6573 13.1186C11.7065 13.0701 11.7607 13.0097 11.8348 12.926L11.8448 12.9147C11.9128 12.8379 11.9943 12.746 12.0843 12.6531C12.4805 12.2444 13.0764 11.785 14.0574 11.785C14.8243 11.785 15.6076 12.1899 16.2261 12.7249C16.8542 13.2682 17.3959 14.0158 17.6419 14.8315C17.8509 15.5246 17.5107 16.1148 17.1089 16.5224C16.7042 16.9329 16.1378 17.271 15.5875 17.5322C14.6613 17.9717 13.6321 18.1258 12.6303 18.0294C10.8483 17.858 8.3658 17.15 5.43218 14.3708C5.42255 14.3617 5.41324 14.3522 5.40425 14.3425C3.739 12.5341 2.83357 11.0041 2.3637 9.6048C1.89305 8.20319 1.87517 6.97691 1.91708 5.82365C1.96475 4.51168 2.57366 3.53674 3.25959 2.89835C3.60087 2.58072 3.96572 2.34155 4.30109 2.17964ZM4.05443 3.75237C3.55013 4.22172 3.11738 4.91922 3.08297 5.86602C3.0428 6.97153 3.06596 8.03114 3.46968 9.23342C3.87303 10.4346 4.67191 11.822 6.24899 13.5375C8.98323 16.1225 11.2159 16.7213 12.742 16.8681C13.5529 16.9461 14.3683 16.8194 15.0873 16.4782C15.5863 16.2414 16.0123 15.973 16.278 15.7034C16.5466 15.431 16.5548 15.2675 16.5249 15.1684C16.3542 14.6025 15.9567 14.0344 15.4629 13.6073C14.9595 13.1719 14.4381 12.9517 14.0574 12.9517C13.5085 12.9517 13.1954 13.1831 12.9219 13.4652C12.8506 13.5388 12.7845 13.6134 12.7129 13.6942L12.708 13.6997C12.6389 13.7777 12.5582 13.8688 12.4762 13.9496C12.3278 14.0958 12.0564 14.3333 11.6667 14.3333C11.0987 14.3333 10.5382 14.1182 9.99508 13.7849C9.44984 13.4502 8.88327 12.9723 8.29236 12.3887C7.67273 11.7767 7.13101 11.0278 6.74203 10.3202C6.3664 9.63686 6.08335 8.90242 6.08335 8.33329C6.08335 8.03025 6.18171 7.74876 6.29767 7.51307C6.41524 7.27412 6.56978 7.0448 6.72285 6.83851C6.85506 6.66032 6.99741 6.48463 7.12512 6.32701C7.14522 6.3022 7.16497 6.27783 7.18425 6.25397C7.33238 6.07069 7.45071 5.92063 7.53489 5.79333C7.56513 5.74759 7.57233 5.69947 7.56379 5.65874C7.45978 5.1626 7.00194 4.5041 6.41913 3.93378C6.13884 3.65951 5.85514 3.43087 5.61599 3.27529C5.49613 3.19732 5.39678 3.1438 5.32185 3.11165C5.28022 3.09379 5.25557 3.08662 5.24561 3.08396C5.18725 3.08878 5.03413 3.12125 4.80832 3.23027C4.57568 3.34259 4.30826 3.51612 4.05443 3.75237Z" fill="white"/>
</svg>
