<svg width="16" height="16" viewBox="0 0 16 16" fill="none" xmlns="http://www.w3.org/2000/svg">
<path d="M8.89321 8L13.815 3.07817C14.0617 2.83152 14.0617 2.43163 13.815 2.18499C13.5684 1.93834 13.1685 1.93834 12.9218 2.18499L7.99999 7.10682L3.07817 2.18499C2.83151 1.93834 2.43162 1.93834 2.18499 2.18499C1.93836 2.43165 1.93834 2.83154 2.18499 3.07817L7.10681 8L2.18499 12.9218C1.93834 13.1685 1.93834 13.5684 2.18499 13.815C2.43165 14.0617 2.83154 14.0616 3.07817 13.815L7.99999 8.89318L12.9218 13.815C13.1684 14.0617 13.5683 14.0616 13.815 13.815C14.0616 13.5684 14.0616 13.1685 13.815 12.9218L8.89321 8Z" fill="white"/>
</svg>
