<svg width="31" height="31" viewBox="0 0 31 31" fill="none" xmlns="http://www.w3.org/2000/svg">
<g clip-path="url(#clip0_1_797)">
<path d="M19.732 9.20312C19.2779 8.76719 18.7874 8.33119 18.2789 7.89525C18.3151 7.71367 18.3515 7.55013 18.406 7.38672C19.1144 5.44316 21.9117 3.97793 23.0741 3.57826C23.3647 3.48744 23.6009 3.23314 23.6735 2.92435C23.7463 2.63379 23.6554 2.30671 23.4192 2.08875C23.2194 1.87078 21.2759 -6.10352e-05 19.1507 -6.10352e-05C17.6795 -6.10352e-05 16.299 0.889978 15.5179 1.5075C14.7369 0.890039 13.3564 -4.88279e-07 11.8851 -4.88279e-07C9.75992 -4.88279e-07 7.81637 1.87084 7.61662 2.08881C7.38049 2.30677 7.28955 2.63379 7.36233 2.92441C7.43492 3.23314 7.67105 3.4875 7.96174 3.57832C8.01617 3.59648 11.8125 5.04355 12.6298 7.38678C12.6843 7.55019 12.7388 7.7319 12.7569 7.89531C12.2484 8.33125 11.7579 8.76725 11.3038 9.20319C2.73049 17.1408 2.18545 22.4629 3.34801 25.6052C4.74664 29.4197 8.97893 31 10.9224 31H20.1135C22.0389 31 26.2348 29.4016 27.6515 25.5508C28.814 22.4083 28.2692 17.0863 19.732 9.20312Z" fill="url(#paint0_linear_1_797)"/>
<path d="M16.4261 18.3587V14.7679C17.4703 15.0243 18.2426 15.6964 18.2426 16.4688C18.2426 16.9707 18.6488 17.377 19.1508 17.377C19.6528 17.377 20.059 16.9707 20.059 16.4688C20.059 14.7141 18.4963 13.2469 16.4261 12.9094V11.9277C16.4261 11.4257 16.0199 11.0195 15.5179 11.0195C15.0159 11.0195 14.6097 11.4257 14.6097 11.9277V12.9094C12.5396 13.2469 10.9769 14.7141 10.9769 16.4688C10.9769 18.2234 12.5396 19.6906 14.6097 20.0281V23.6189C13.5656 23.3624 12.7933 22.6904 12.7933 21.918C12.7933 21.416 12.3871 21.0098 11.8851 21.0098C11.3831 21.0098 10.9769 21.416 10.9769 21.918C10.9769 23.6726 12.5396 25.1398 14.6097 25.4773V26.459C14.6097 26.961 15.0159 27.3672 15.5179 27.3672C16.0199 27.3672 16.4261 26.961 16.4261 26.459V25.4773C18.4963 25.1398 20.059 23.6726 20.059 21.918C20.059 20.1633 18.4963 18.6961 16.4261 18.3587ZM12.7933 16.4688C12.7933 15.6964 13.5656 15.0243 14.6097 14.7679V18.1696C13.5656 17.9132 12.7933 17.2411 12.7933 16.4688ZM16.4261 23.6189V20.2171C17.4703 20.4735 18.2426 21.1456 18.2426 21.918C18.2426 22.6904 17.4703 23.3624 16.4261 23.6189Z" fill="url(#paint1_linear_1_797)"/>
</g>
<defs>
<linearGradient id="paint0_linear_1_797" x1="15.5" y1="31" x2="15.5" y2="-1.90735e-06" gradientUnits="userSpaceOnUse">
<stop stop-color="#FD5900"/>
<stop offset="1" stop-color="#FFDE00"/>
</linearGradient>
<linearGradient id="paint1_linear_1_797" x1="15.5179" y1="27.3672" x2="15.5179" y2="11.0195" gradientUnits="userSpaceOnUse">
<stop stop-color="#FFEDAD"/>
<stop offset="1" stop-color="#FFFFE5"/>
</linearGradient>
<clipPath id="clip0_1_797">
<rect width="31" height="31" fill="white"/>
</clipPath>
</defs>
</svg>
