<svg width="24" height="82" viewBox="0 0 24 82" fill="none" xmlns="http://www.w3.org/2000/svg">
<path fill-rule="evenodd" clip-rule="evenodd" d="M12 81C14 81 21 75.75 21 69.45C21 63.15 16.9706 60 12 60C7.02944 60 3 63.15 3 69.45C3 75.75 10 81 12 81ZM9.45005 68.25C9.45005 66.8417 10.5917 65.7 12 65.7C13.4084 65.7 14.55 66.8417 14.55 68.25C14.55 69.6584 13.4084 70.8 12 70.8C10.5917 70.8 9.45005 69.6584 9.45005 68.25ZM12 64.3C9.81852 64.3 8.05005 66.0685 8.05005 68.25C8.05005 70.4316 9.81852 72.2 12 72.2C14.1816 72.2 15.95 70.4316 15.95 68.25C15.95 66.0685 14.1816 64.3 12 64.3Z" fill="black"/>
<path d="M12.5 23L12.5 60" stroke="#707070" stroke-dasharray="5 5"/>
<circle cx="12" cy="12" r="12" fill="#CCCBD0"/>
<circle cx="12" cy="12" r="6" fill="black"/>
</svg>
