<svg width="24" height="24" viewBox="0 0 24 24" fill="none" xmlns="http://www.w3.org/2000/svg">
<path fill-rule="evenodd" clip-rule="evenodd" d="M16.995 9.50501C17.2684 9.77837 17.2684 10.2216 16.995 10.495L16.5616 10.0615C16.995 10.495 16.9951 10.4949 16.995 10.495L16.949 10.5409L16.82 10.669C16.7088 10.7792 16.5496 10.9364 16.3571 11.125C15.9723 11.5019 15.4531 12.0054 14.9173 12.5097C14.3833 13.0123 13.8253 13.5228 13.365 13.9104C13.1364 14.103 12.9201 14.2752 12.7367 14.4027C12.6461 14.4658 12.5493 14.5279 12.4541 14.5771C12.3888 14.6108 12.2133 14.7 12.0001 14.7C11.7869 14.7 11.6113 14.6108 11.5461 14.5771C11.4509 14.5279 11.3541 14.4658 11.2634 14.4027C11.0801 14.2752 10.8638 14.103 10.6351 13.9104C10.1748 13.5228 9.61684 13.0123 9.08282 12.5097C8.547 12.0054 8.0278 11.5019 7.64304 11.125C7.45052 10.9364 7.29133 10.7792 7.18015 10.669L7.05117 10.5409L7.00595 10.4958L7.00517 10.495C7.00513 10.495 7.0051 10.495 7.50007 9.99998L7.99506 9.50502L8.03906 9.5489L8.1657 9.67469C8.27522 9.78325 8.43244 9.93852 8.62273 10.1249C9.0036 10.498 9.51564 10.9945 10.0423 11.4902C10.5708 11.9876 11.1066 12.4771 11.5369 12.8395C11.7207 12.9944 11.8769 13.1188 12.0001 13.2086C12.1233 13.1188 12.2794 12.9944 12.4632 12.8395C12.8936 12.4771 13.4293 11.9876 13.9578 11.4902C14.4845 10.9945 14.9965 10.498 15.3774 10.1249C15.5677 9.93852 15.7249 9.78325 15.8345 9.67469L15.9611 9.5489L16.0045 9.50561C16.2779 9.23225 16.7217 9.23164 16.995 9.50501ZM11.812 13.333C11.7939 13.3402 11.7931 13.3428 11.812 13.333C11.8122 13.3329 11.8117 13.3332 11.812 13.333ZM7.0051 9.50501C7.27847 9.23164 7.7217 9.23165 7.99506 9.50502L7.50007 9.99998L7.00517 10.495C6.73181 10.2217 6.73173 9.77837 7.0051 9.50501Z" fill="#222628"/>
</svg>
