<svg width="20" height="20" viewBox="0 0 20 20" fill="none" xmlns="http://www.w3.org/2000/svg">
<path fill-rule="evenodd" clip-rule="evenodd" d="M1.77902 8.75352C1.77902 4.97764 4.83997 1.91669 8.61585 1.91669H11.9839C15.3525 1.91669 18.0833 4.64751 18.0833 8.01615V11.2084C18.0833 14.5911 15.3411 17.3334 11.9583 17.3334H9.17756L6.43782 17.2867C5.36735 17.2685 4.29958 17.3996 3.26532 17.6762L2.87729 17.78C1.97399 18.0217 1.16451 17.1618 1.4602 16.2747C1.76086 15.3727 1.90385 14.4257 1.88291 13.4752L1.77916 8.76637L2.36235 8.75352H1.77902ZM2.94569 8.74724L3.04929 13.4495C3.07319 14.534 2.91004 15.6145 2.567 16.6436C2.56644 16.6453 2.56612 16.6465 2.56594 16.6474C2.56639 16.6482 2.5672 16.6494 2.56861 16.6509C2.57002 16.6524 2.57123 16.6533 2.57201 16.6538C2.57286 16.6537 2.57412 16.6534 2.57582 16.653L2.96385 16.5492C4.10286 16.2445 5.27877 16.1001 6.45765 16.1202L9.19244 16.1667H11.9583C14.6967 16.1667 16.9166 13.9468 16.9166 11.2084V8.01615C16.9166 5.29184 14.7082 3.08335 11.9839 3.08335H8.61585C5.48639 3.08335 2.94907 5.61858 2.94569 8.74724Z" fill="white"/>
<path d="M7.49992 10C7.49992 10.4603 7.12682 10.8334 6.66659 10.8334C6.20635 10.8334 5.83325 10.4603 5.83325 10C5.83325 9.53978 6.20635 9.16669 6.66659 9.16669C7.12682 9.16669 7.49992 9.53978 7.49992 10Z" fill="white"/>
<path d="M10.8333 10C10.8333 10.4603 10.4602 10.8334 9.99996 10.8334C9.53972 10.8334 9.16663 10.4603 9.16663 10C9.16663 9.53978 9.53972 9.16669 9.99996 9.16669C10.4602 9.16669 10.8333 9.53978 10.8333 10Z" fill="white"/>
<path d="M14.1667 10C14.1667 10.4603 13.7936 10.8334 13.3333 10.8334C12.8731 10.8334 12.5 10.4603 12.5 10C12.5 9.53978 12.8731 9.16669 13.3333 9.16669C13.7936 9.16669 14.1667 9.53978 14.1667 10Z" fill="white"/>
</svg>
