<svg width="20" height="6" viewBox="0 0 20 6" fill="none" xmlns="http://www.w3.org/2000/svg">
<path d="M3.00029 5C1.89721 5 1 4.10323 1 3C1 1.89736 1.89721 1 3.00029 1C4.10336 1 5.00058 1.89731 5.00058 3C5.00053 4.10323 4.10336 5 3.00029 5Z" fill="white"/>
<path d="M10.241 5C9.13793 5 8.24072 4.10323 8.24072 3C8.24072 1.89736 9.13793 1 10.241 1C11.3439 1 12.2413 1.89731 12.2413 3C12.2412 4.10323 11.3439 5 10.241 5Z" fill="white"/>
<path d="M17.4817 5C16.3789 5 15.4814 4.10323 15.4814 3C15.4814 1.89736 16.3788 1 17.4817 1C18.5847 1 19.482 1.89731 19.482 3C19.482 4.10323 18.5847 5 17.4817 5Z" fill="white"/>
</svg>
