<svg width="24" height="24" viewBox="0 0 24 24" fill="none" xmlns="http://www.w3.org/2000/svg">
<path d="M18.8268 10.4129L13.0299 6.07957C12.9048 5.98605 12.7407 5.97404 12.6045 6.04845C12.4683 6.1229 12.3828 6.27133 12.3828 6.43331V8.6111C10.4554 8.71602 8.65729 9.559 7.28252 11.0114C5.81061 12.5665 5 14.6341 5 16.8333V18.5666C5 18.8072 5.18484 19 5.41049 19C5.59109 19 5.75368 18.8738 5.80454 18.6857L5.86767 18.4523C6.70866 15.3424 9.35324 13.1302 12.3828 12.9458V15.1C12.3828 15.262 12.4683 15.4104 12.6045 15.4848C12.7406 15.5592 12.9047 15.5473 13.0299 15.4537L18.8267 11.1204C18.9354 11.0392 19 10.9073 19 10.7666C19 10.626 18.9354 10.4941 18.8268 10.4129ZM13.2031 14.2625V12.5C13.2031 12.2607 13.0195 12.0666 12.793 12.0666C11.9127 12.0666 11.0453 12.2177 10.2148 12.5155C8.33914 13.1883 6.79375 14.5599 5.83721 16.3176C6.08853 12.4952 9.11226 9.46664 12.793 9.46664C13.0195 9.46664 13.2031 9.27263 13.2031 9.03331V7.27074L17.8798 10.7666L13.2031 14.2625Z" fill="black"/>
</svg>
