<svg width="25" height="24" viewBox="0 0 25 24" fill="none" xmlns="http://www.w3.org/2000/svg">
<g clip-path="url(#clip0_2_79)">
<path d="M21.7208 7.40331L15.4517 6.82187L12.9614 1.03922C12.787 0.634314 12.2129 0.634314 12.0386 1.03922L9.5483 6.82183L3.27918 7.40331C2.84019 7.444 2.66282 7.99 2.99399 8.28095L7.72406 12.4362L6.33979 18.5782C6.24286 19.0083 6.70734 19.3457 7.08637 19.1207L12.5 15.9062L17.9136 19.1207C18.2927 19.3458 18.7571 19.0083 18.6602 18.5782L17.2758 12.4362L22.006 8.28095C22.3371 7.99 22.1597 7.444 21.7208 7.40331Z" fill="#FFDC64"/>
<path d="M6.09114 0.840143C6.41073 1.28405 7.31279 3.19046 7.82851 4.30149C7.90961 4.47615 7.69047 4.63393 7.55055 4.5016C6.66053 3.6601 5.13873 2.19985 4.81913 1.75589C4.56624 1.40466 4.64598 0.914909 4.99726 0.662018C5.34849 0.409127 5.83824 0.488908 6.09114 0.840143Z" fill="#FFF082"/>
<path d="M18.9088 0.840143C18.5892 1.28405 17.6872 3.19046 17.1714 4.30149C17.0903 4.47615 17.3095 4.63393 17.4494 4.5016C18.3394 3.6601 19.8612 2.1998 20.1808 1.75589C20.4337 1.40466 20.354 0.914909 20.0027 0.662018C19.6515 0.409127 19.1617 0.488908 18.9088 0.840143Z" fill="#FFF082"/>
<path d="M23.9591 13.8576C23.4391 13.688 21.3487 13.4079 20.1336 13.2541C19.9425 13.2299 19.8588 13.4867 20.0273 13.5798C21.0995 14.172 22.9531 15.1782 23.4731 15.3478C23.8846 15.482 24.327 15.2572 24.4612 14.8457C24.5954 14.4342 24.3706 13.9918 23.9591 13.8576Z" fill="#FFF082"/>
<path d="M1.04087 13.8576C1.5609 13.688 3.6513 13.4079 4.86644 13.2541C5.05746 13.2299 5.14118 13.4867 4.97266 13.5798C3.90049 14.172 2.0469 15.1782 1.52687 15.3478C1.1154 15.482 0.673042 15.2572 0.538838 14.8457C0.404635 14.4342 0.629401 13.9918 1.04087 13.8576Z" fill="#FFF082"/>
<path d="M11.7404 22.7021C11.7404 22.1551 12.1222 20.0809 12.3528 18.8779C12.389 18.6888 12.6591 18.6888 12.6953 18.8779C12.9259 20.0809 13.3077 22.1551 13.3077 22.7021C13.3077 23.1349 12.9569 23.4857 12.5241 23.4857C12.0912 23.4858 11.7404 23.1349 11.7404 22.7021Z" fill="#FFF082"/>
<path d="M13.8669 3.14204L12.9613 1.03922C12.7869 0.634314 12.2129 0.634314 12.0385 1.03922L9.54825 6.82183L3.27918 7.40331C2.84019 7.444 2.66282 7.99 2.99399 8.28096L7.72406 12.4362L6.33979 18.5782C6.24286 19.0083 6.70734 19.3457 7.08637 19.1207L7.80689 18.6929C8.98809 11.0466 12.3088 5.43367 13.8669 3.14204Z" fill="#FFC850"/>
</g>
<defs>
<clipPath id="clip0_2_79">
<rect width="24" height="24" fill="white" transform="translate(0.5)"/>
</clipPath>
</defs>
</svg>
