<svg width="14" height="15" viewBox="0 0 14 15" fill="none" xmlns="http://www.w3.org/2000/svg">
<g clip-path="url(#clip0_2_138)">
<path d="M13.6697 5.64774L9.13502 5.22716L7.33372 1.04443C7.20761 0.751548 6.79235 0.751548 6.66624 1.04443L4.86497 5.22719L0.33032 5.64774C0.0128046 5.67719 -0.115519 6.07211 0.124039 6.28255L3.54545 9.28822L2.54417 13.7309C2.47407 14.042 2.81001 14.286 3.08419 14.1232L6.99999 11.7981L10.9158 14.1232C11.19 14.286 11.526 14.042 11.4558 13.7309L10.4545 9.28822L13.8759 6.28255C14.1155 6.07211 13.9872 5.67719 13.6697 5.64774Z" fill="#FFDC64"/>
<path d="M7.33372 1.04443C7.20761 0.751548 6.79235 0.751548 6.66624 1.04443L4.86497 5.22719L0.33032 5.64774C0.0128046 5.67719 -0.115519 6.07211 0.124039 6.28255L3.54545 9.28822L2.54417 13.7309C2.47407 14.042 2.81001 14.286 3.08419 14.1232L3.95817 13.6043C4.07914 8.62498 6.39269 5.1185 8.22439 3.11259L7.33372 1.04443Z" fill="#FFDC64"/>
</g>
<defs>
<clipPath id="clip0_2_138">
<rect width="14" height="14" fill="white" transform="translate(0 0.5)"/>
</clipPath>
</defs>
</svg>
