<svg width="24" height="24" viewBox="0 0 24 24" fill="none" xmlns="http://www.w3.org/2000/svg">
<path d="M17.8065 19.3548V17.6756C17.8065 16.3158 17.093 15.0558 15.9271 14.3563L12 12L9.29034 13.6258L7.73438 17.6756V20.2344L17.8065 19.3548Z" fill="#FAF5DC"/>
<path d="M9.29035 19.3548V13.6258L8.07296 14.3563C6.90704 15.0558 6.1936 16.3159 6.1936 17.6756V19.3548H9.29035Z" fill="#F5EBCD"/>
<path d="M7.48438 0.7742V6.32444C7.48438 7.68419 8.19781 8.94418 9.36373 9.64375H14.5156L17.1269 8.51612C17.5642 7.88059 17.8064 7.12103 17.8064 6.32439V2.32258L7.48438 0.7742Z" fill="#FAF5DC"/>
<path d="M6.19348 0.7742V6.32444C6.19348 7.11981 6.43761 7.88106 6.87359 8.51603L9.29023 9.3047V3.4839C9.29023 2.84256 9.81017 2.32262 10.4515 2.32262H17.8063V0.7742H6.19348Z" fill="#F5EBCD"/>
<path d="M12.8718 17.381C12.5778 17.2634 12.3871 16.9795 12.3871 16.6629V12.2061C12.3871 11.9341 12.5298 11.6821 12.763 11.5422L15.9271 9.64374C16.4097 9.35419 16.818 8.96499 17.127 8.51611H9.29034L8.78906 9.1328L9.2903 10.3742L11.237 11.5422C11.4702 11.6821 11.6129 11.9341 11.6129 12.2061V16.6629C11.6129 16.9795 11.4202 17.2642 11.1262 17.3818L9.29034 18.1161L8.48438 22.1406L17.8065 21.6774V19.3548C17.8065 19.3548 14.2742 17.9419 12.8718 17.381Z" fill="#D19A6E"/>
<path d="M9.29028 20.5161V18.1161L6.19348 19.3548V22.8387H17.8064V21.6774H10.4516C9.81017 21.6774 9.29028 21.1575 9.29028 20.5161Z" fill="#C38C66"/>
<path d="M18.1934 22.4516H8.12892C7.91512 22.4516 7.74182 22.6249 7.74182 22.8387V23.2258C7.74182 23.4396 7.91512 23.6129 8.12892 23.6129H18.1934C18.4072 23.6129 18.5805 23.4396 18.5805 23.2258V22.8387C18.5805 22.6249 18.4072 22.4516 18.1934 22.4516Z" fill="#F6D190"/>
<path d="M8.90316 23.2258C8.47556 23.2258 8.12897 22.8792 8.12897 22.4516H5.80641C5.59261 22.4516 5.41931 22.6249 5.41931 22.8387V23.6129C5.41931 23.8267 5.59261 24 5.80641 24H18.1935C18.4073 24 18.5806 23.8267 18.5806 23.6129V23.2258H8.90316Z" fill="#ECBD83"/>
<path d="M8.07281 9.64374L9.2902 10.3742V8.51611H6.87366C7.1827 8.96504 7.59024 9.35419 8.07281 9.64374Z" fill="#C38C66"/>
<path d="M18.1934 0H8.12892C7.91512 0 7.74182 0.173297 7.74182 0.387094V0.774188C7.74182 0.987938 7.91512 1.16128 8.12892 1.16128H18.1934C18.4072 1.16128 18.5805 0.987938 18.5805 0.774188V0.387094C18.5805 0.173297 18.4072 0 18.1934 0Z" fill="#F6D190"/>
<path d="M8.90316 0.774188C8.47556 0.774188 8.12897 0.427547 8.12897 0H5.80641C5.59261 0 5.41931 0.173297 5.41931 0.387094V1.16128C5.41931 1.37508 5.59261 1.54838 5.80641 1.54838H18.1935C18.4073 1.54838 18.5806 1.37508 18.5806 1.16128V0.774188H8.90316Z" fill="#ECBD83"/>
</svg>
