<svg width="12" height="13" viewBox="0 0 12 13" fill="none" xmlns="http://www.w3.org/2000/svg">
<g clip-path="url(#clip0_1_748)">
<path d="M5.91448 6.28045C6.70861 6.28045 7.39617 5.99563 7.95812 5.43368C8.51989 4.87182 8.8048 4.18435 8.8048 3.39013C8.8048 2.59619 8.51998 1.90863 7.95803 1.34659C7.39608 0.78482 6.70852 0.5 5.91448 0.5C5.12027 0.5 4.4328 0.78482 3.87094 1.34668C3.30908 1.90854 3.02417 2.5961 3.02417 3.39013C3.02417 4.18435 3.30908 4.87191 3.87094 5.43377C4.43298 5.99553 5.12054 6.28045 5.91448 6.28045ZM4.36825 1.8439C4.79937 1.41278 5.30511 1.20322 5.91448 1.20322C6.52377 1.20322 7.02959 1.41278 7.46081 1.8439C7.89193 2.27511 8.10158 2.78094 8.10158 3.39013C8.10158 3.99951 7.89193 4.50524 7.46081 4.93645C7.02959 5.36767 6.52377 5.57723 5.91448 5.57723C5.30529 5.57723 4.79956 5.36758 4.36825 4.93645C3.93704 4.50533 3.72739 3.99951 3.72739 3.39013C3.72739 2.78094 3.93704 2.27511 4.36825 1.8439Z" fill="#F3F3F3"/>
<path d="M10.9718 9.72741C10.9555 9.49358 10.9228 9.23852 10.8745 8.96917C10.8258 8.69781 10.7631 8.44128 10.688 8.20681C10.6104 7.96447 10.505 7.72516 10.3746 7.49582C10.2393 7.25778 10.0804 7.05051 9.90205 6.87994C9.71556 6.70151 9.48723 6.55804 9.22319 6.4534C8.96007 6.3493 8.66847 6.29657 8.35655 6.29657C8.23406 6.29657 8.11559 6.34683 7.8868 6.49579C7.74599 6.58762 7.58129 6.69382 7.39745 6.81128C7.24025 6.91144 7.0273 7.00528 6.76427 7.09024C6.50765 7.17328 6.24709 7.21539 5.98983 7.21539C5.73275 7.21539 5.47219 7.17328 5.21539 7.09024C4.95263 7.00537 4.73959 6.91153 4.58267 6.81137C4.40057 6.69501 4.23577 6.58881 4.09286 6.4957C3.86425 6.34674 3.74578 6.29648 3.62329 6.29648C3.31128 6.29648 3.01977 6.3493 2.75674 6.45349C2.49289 6.55795 2.26446 6.70142 2.07779 6.88003C1.89944 7.05069 1.74051 7.25787 1.60538 7.49582C1.4751 7.72516 1.36963 7.96438 1.29199 8.20691C1.21701 8.44137 1.1543 8.69781 1.10559 8.96917C1.05725 9.23815 1.02457 9.49331 1.00836 9.72768C0.992432 9.95684 0.984375 10.1953 0.984375 10.4363C0.984375 11.0627 1.1835 11.5698 1.57617 11.9438C1.96399 12.3129 2.47705 12.5 3.10116 12.5H8.87923C9.50316 12.5 10.0162 12.3129 10.4041 11.9438C10.7969 11.5701 10.996 11.0628 10.996 10.4362C10.9959 10.1944 10.9878 9.95593 10.9718 9.72741ZM9.91926 11.4343C9.66301 11.6782 9.3228 11.7968 8.87914 11.7968H3.10116C2.65741 11.7968 2.3172 11.6782 2.06103 11.4344C1.80972 11.1952 1.68759 10.8686 1.68759 10.4363C1.68759 10.2114 1.69501 9.98943 1.70984 9.7763C1.7243 9.56719 1.75387 9.33749 1.79773 9.09341C1.84103 8.85235 1.89615 8.62612 1.9617 8.42132C2.0246 8.22494 2.11038 8.03048 2.21676 7.84317C2.3183 7.66464 2.43512 7.51147 2.56402 7.38806C2.6846 7.27261 2.83658 7.17813 3.01565 7.10727C3.18127 7.04172 3.3674 7.00583 3.56945 7.00043C3.59408 7.01352 3.63793 7.03851 3.70898 7.08484C3.85354 7.17904 4.02017 7.28653 4.20437 7.40417C4.41201 7.53656 4.67953 7.65613 4.99914 7.75931C5.32589 7.86496 5.65914 7.91861 5.98992 7.91861C6.3207 7.91861 6.65404 7.86496 6.98061 7.7594C7.3005 7.65603 7.56792 7.53656 7.77584 7.40399C7.96434 7.28351 8.1263 7.17914 8.27086 7.08484C8.34191 7.0386 8.38576 7.01352 8.41039 7.00043C8.61253 7.00583 8.79866 7.04172 8.96437 7.10727C9.14336 7.17813 9.29533 7.2727 9.41591 7.38806C9.54482 7.51138 9.66164 7.66455 9.76317 7.84326C9.86964 8.03048 9.95552 8.22503 10.0183 8.42123C10.084 8.62631 10.1392 8.85244 10.1824 9.09332C10.2261 9.33785 10.2558 9.56765 10.2703 9.77639V9.77657C10.2852 9.98888 10.2927 10.2108 10.2928 10.4363C10.2927 10.8687 10.1706 11.1952 9.91926 11.4343Z" fill="#F3F3F3"/>
</g>
<defs>
<clipPath id="clip0_1_748">
<rect width="12" height="12" fill="white" transform="translate(0 0.5)"/>
</clipPath>
</defs>
</svg>
